<svg width="116" height="50" viewBox="0 0 116 50" fill="none" xmlns="http://www.w3.org/2000/svg">
<circle cx="25" cy="25" r="25" fill="#FF9900"/>
<path d="M61.483 22.5085V21.7273H66.9375V22.5085H64.6506V29H63.7699V22.5085H61.483ZM69.0211 25.7188V29H68.1831V21.7273H69.0211V24.3977H69.0922C69.22 24.116 69.4118 23.8923 69.6674 23.7266C69.9255 23.5585 70.2688 23.4744 70.6973 23.4744C71.069 23.4744 71.3945 23.549 71.6738 23.6982C71.9532 23.8449 72.1698 24.071 72.3237 24.3764C72.4799 24.6795 72.5581 25.0653 72.5581 25.5341V29H71.72V25.5909C71.72 25.1577 71.6075 24.8227 71.3826 24.5859C71.1601 24.3468 70.8511 24.2273 70.4558 24.2273C70.1812 24.2273 69.935 24.2853 69.7172 24.4013C69.5017 24.5173 69.3313 24.6866 69.2058 24.9091C69.0827 25.1316 69.0211 25.4015 69.0211 25.7188ZM76.3782 29.1136C75.8526 29.1136 75.3993 28.9976 75.0181 28.7656C74.6393 28.5312 74.3469 28.2045 74.141 27.7855C73.9374 27.3641 73.8356 26.8741 73.8356 26.3153C73.8356 25.7566 73.9374 25.2642 74.141 24.8381C74.3469 24.4096 74.6334 24.0758 75.0004 23.8366C75.3697 23.5952 75.8005 23.4744 76.293 23.4744C76.5771 23.4744 76.8576 23.5218 77.1346 23.6165C77.4116 23.7112 77.6637 23.8651 77.891 24.0781C78.1183 24.2888 78.2994 24.5682 78.4343 24.9162C78.5692 25.2642 78.6367 25.6927 78.6367 26.2017V26.5568H74.4322V25.8324H77.7844C77.7844 25.5246 77.7229 25.25 77.5998 25.0085C77.479 24.767 77.3062 24.5765 77.0813 24.4368C76.8588 24.2971 76.596 24.2273 76.293 24.2273C75.9592 24.2273 75.6703 24.3101 75.4265 24.4759C75.185 24.6392 74.9992 24.8523 74.869 25.1151C74.7388 25.3778 74.6737 25.6596 74.6737 25.9602V26.4432C74.6737 26.8551 74.7447 27.2043 74.8867 27.4908C75.0311 27.7749 75.2312 27.9915 75.4869 28.1406C75.7425 28.2874 76.0397 28.3608 76.3782 28.3608C76.5984 28.3608 76.7972 28.33 76.9748 28.2685C77.1547 28.2045 77.3098 28.1098 77.44 27.9844C77.5702 27.8565 77.6708 27.6979 77.7418 27.5085L78.5515 27.7358C78.4663 28.0104 78.323 28.2519 78.1218 28.4602C77.9206 28.6662 77.672 28.8272 77.3761 28.9432C77.0801 29.0568 76.7475 29.1136 76.3782 29.1136ZM86.815 23.5455C86.7724 23.1856 86.5996 22.9062 86.2965 22.7074C85.9935 22.5085 85.6218 22.4091 85.1815 22.4091C84.8595 22.4091 84.5778 22.4612 84.3363 22.5653C84.0972 22.6695 83.9102 22.8127 83.7752 22.995C83.6426 23.1773 83.5763 23.3845 83.5763 23.6165C83.5763 23.8106 83.6225 23.9775 83.7148 24.1172C83.8095 24.2545 83.9303 24.3693 84.0771 24.4616C84.2238 24.5516 84.3777 24.6262 84.5387 24.6854C84.6997 24.7422 84.8477 24.7884 84.9826 24.8239L85.7212 25.0227C85.9106 25.0724 86.1213 25.1411 86.3533 25.2287C86.5877 25.3163 86.8114 25.4358 87.0245 25.5874C87.2399 25.7365 87.4175 25.9283 87.5572 26.1626C87.6969 26.397 87.7667 26.6847 87.7667 27.0256C87.7667 27.4186 87.6637 27.7737 87.4577 28.0909C87.2541 28.4081 86.9558 28.6603 86.5629 28.8473C86.1722 29.0343 85.6976 29.1278 85.1388 29.1278C84.618 29.1278 84.167 29.0438 83.7859 28.8757C83.4071 28.7076 83.1088 28.4732 82.891 28.1726C82.6755 27.8719 82.5536 27.5227 82.5252 27.125H83.4343C83.458 27.3996 83.5503 27.6269 83.7113 27.8068C83.8746 27.9844 84.0806 28.117 84.3292 28.2045C84.5801 28.2898 84.85 28.3324 85.1388 28.3324C85.475 28.3324 85.7769 28.2779 86.0444 28.169C86.3119 28.0578 86.5238 27.9039 86.68 27.7074C86.8363 27.5085 86.9144 27.2765 86.9144 27.0114C86.9144 26.7699 86.8469 26.5734 86.712 26.4219C86.5771 26.2704 86.3995 26.1473 86.1793 26.0526C85.9592 25.9579 85.7212 25.875 85.4656 25.804L84.5707 25.5483C84.0025 25.3849 83.5527 25.1518 83.2212 24.8487C82.8898 24.5457 82.7241 24.1491 82.7241 23.6591C82.7241 23.2519 82.8342 22.8968 83.0543 22.5938C83.2769 22.2884 83.5752 22.0516 83.9492 21.8835C84.3256 21.7131 84.7459 21.6278 85.2099 21.6278C85.6786 21.6278 86.0953 21.7119 86.4599 21.88C86.8245 22.0457 87.1133 22.273 87.3263 22.5618C87.5418 22.8506 87.6554 23.1785 87.6673 23.5455H86.815ZM89.101 31.0455V23.5455H89.9107V24.4119H90.0101C90.0717 24.3172 90.1569 24.1965 90.2658 24.0497C90.3771 23.9006 90.5357 23.768 90.7417 23.652C90.95 23.5336 91.2317 23.4744 91.5868 23.4744C92.0461 23.4744 92.4509 23.5893 92.8013 23.8189C93.1517 24.0485 93.4251 24.3741 93.6216 24.7955C93.8181 25.2169 93.9164 25.714 93.9164 26.2869C93.9164 26.8646 93.8181 27.3653 93.6216 27.7891C93.4251 28.2105 93.1529 28.5372 92.8049 28.7692C92.4569 28.9988 92.0556 29.1136 91.601 29.1136C91.2507 29.1136 90.9701 29.0556 90.7594 28.9396C90.5487 28.8213 90.3865 28.6875 90.2729 28.5384C90.1593 28.3868 90.0717 28.2614 90.0101 28.1619H89.9391V31.0455H89.101ZM89.9249 26.2727C89.9249 26.6847 89.9853 27.0481 90.106 27.3629C90.2267 27.6754 90.4031 27.9205 90.6351 28.098C90.8671 28.2732 91.1512 28.3608 91.4874 28.3608C91.8378 28.3608 92.1301 28.2685 92.3645 28.0838C92.6013 27.8968 92.7788 27.6458 92.8972 27.331C93.0179 27.0137 93.0783 26.661 93.0783 26.2727C93.0783 25.8892 93.0191 25.5436 92.9007 25.2358C92.7847 24.9257 92.6084 24.6806 92.3716 24.5007C92.1373 24.3184 91.8425 24.2273 91.4874 24.2273C91.1465 24.2273 90.86 24.3137 90.628 24.4865C90.396 24.657 90.2208 24.8961 90.1025 25.2038C89.9841 25.5092 89.9249 25.8655 89.9249 26.2727ZM96.0328 25.7188V29H95.1948V21.7273H96.0328V24.3977H96.1039C96.2317 24.116 96.4235 23.8923 96.6792 23.7266C96.9372 23.5585 97.2805 23.4744 97.709 23.4744C98.0807 23.4744 98.4062 23.549 98.6855 23.6982C98.9649 23.8449 99.1815 24.071 99.3354 24.3764C99.4917 24.6795 99.5698 25.0653 99.5698 25.5341V29H98.7317V25.5909C98.7317 25.1577 98.6193 24.8227 98.3944 24.5859C98.1718 24.3468 97.8629 24.2273 97.4675 24.2273C97.1929 24.2273 96.9467 24.2853 96.7289 24.4013C96.5134 24.5173 96.343 24.6866 96.2175 24.9091C96.0944 25.1316 96.0328 25.4015 96.0328 25.7188ZM103.39 29.1136C102.864 29.1136 102.411 28.9976 102.03 28.7656C101.651 28.5312 101.359 28.2045 101.153 27.7855C100.949 27.3641 100.847 26.8741 100.847 26.3153C100.847 25.7566 100.949 25.2642 101.153 24.8381C101.359 24.4096 101.645 24.0758 102.012 23.8366C102.381 23.5952 102.812 23.4744 103.305 23.4744C103.589 23.4744 103.869 23.5218 104.146 23.6165C104.423 23.7112 104.675 23.8651 104.903 24.0781C105.13 24.2888 105.311 24.5682 105.446 24.9162C105.581 25.2642 105.648 25.6927 105.648 26.2017V26.5568H101.444V25.8324H104.796C104.796 25.5246 104.735 25.25 104.612 25.0085C104.491 24.767 104.318 24.5765 104.093 24.4368C103.871 24.2971 103.608 24.2273 103.305 24.2273C102.971 24.2273 102.682 24.3101 102.438 24.4759C102.197 24.6392 102.011 24.8523 101.881 25.1151C101.75 25.3778 101.685 25.6596 101.685 25.9602V26.4432C101.685 26.8551 101.756 27.2043 101.898 27.4908C102.043 27.7749 102.243 27.9915 102.499 28.1406C102.754 28.2874 103.051 28.3608 103.39 28.3608C103.61 28.3608 103.809 28.33 103.987 28.2685C104.166 28.2045 104.321 28.1098 104.452 27.9844C104.582 27.8565 104.683 27.6979 104.754 27.5085L105.563 27.7358C105.478 28.0104 105.335 28.2519 105.134 28.4602C104.932 28.6662 104.684 28.8272 104.388 28.9432C104.092 29.0568 103.759 29.1136 103.39 29.1136ZM106.923 29V23.5455H107.733V24.3693H107.79C107.889 24.0994 108.069 23.8804 108.33 23.7124C108.59 23.5443 108.884 23.4602 109.21 23.4602C109.272 23.4602 109.349 23.4614 109.441 23.4638C109.533 23.4661 109.603 23.4697 109.651 23.4744V24.3267C109.622 24.3196 109.557 24.3089 109.455 24.2947C109.356 24.2782 109.25 24.2699 109.139 24.2699C108.874 24.2699 108.637 24.3255 108.429 24.4368C108.223 24.5457 108.06 24.6972 107.939 24.8913C107.821 25.0831 107.761 25.3021 107.761 25.5483V29H106.923ZM112.765 29.1136C112.239 29.1136 111.786 28.9976 111.405 28.7656C111.026 28.5312 110.734 28.2045 110.528 27.7855C110.324 27.3641 110.222 26.8741 110.222 26.3153C110.222 25.7566 110.324 25.2642 110.528 24.8381C110.734 24.4096 111.02 24.0758 111.387 23.8366C111.756 23.5952 112.187 23.4744 112.68 23.4744C112.964 23.4744 113.244 23.5218 113.521 23.6165C113.798 23.7112 114.05 23.8651 114.278 24.0781C114.505 24.2888 114.686 24.5682 114.821 24.9162C114.956 25.2642 115.023 25.6927 115.023 26.2017V26.5568H110.819V25.8324H114.171C114.171 25.5246 114.11 25.25 113.987 25.0085C113.866 24.767 113.693 24.5765 113.468 24.4368C113.246 24.2971 112.983 24.2273 112.68 24.2273C112.346 24.2273 112.057 24.3101 111.813 24.4759C111.572 24.6392 111.386 24.8523 111.256 25.1151C111.125 25.3778 111.06 25.6596 111.06 25.9602V26.4432C111.06 26.8551 111.131 27.2043 111.273 27.4908C111.418 27.7749 111.618 27.9915 111.874 28.1406C112.129 28.2874 112.426 28.3608 112.765 28.3608C112.985 28.3608 113.184 28.33 113.362 28.2685C113.541 28.2045 113.696 28.1098 113.827 27.9844C113.957 27.8565 114.058 27.6979 114.129 27.5085L114.938 27.7358C114.853 28.0104 114.71 28.2519 114.509 28.4602C114.307 28.6662 114.059 28.8272 113.763 28.9432C113.467 29.0568 113.134 29.1136 112.765 29.1136Z" fill="black"/>
</svg>
